<mxfile host="app.diagrams.net" modified="2024-02-25T06:22:39.011Z" agent="Mozilla/5.0 (Macintosh; Intel Mac OS X 10_15_7) AppleWebKit/605.1.15 (KHTML, like Gecko) Version/15.1 Safari/605.1.15" etag="piYzrhUvNSXORXF9FURc" version="23.1.6" type="device">
  <diagram name="Page-1" id="10a91c8b-09ff-31b1-d368-03940ed4cc9e">
    <mxGraphModel dx="2222" dy="1501" grid="1" gridSize="10" guides="1" tooltips="1" connect="1" arrows="1" fold="1" page="1" pageScale="1" pageWidth="1100" pageHeight="850" background="none" math="0" shadow="0">
      <root>
        <mxCell id="0" />
        <mxCell id="1" parent="0" />
        <mxCell id="62893188c0fa7362-2" value="&lt;span&gt;Gram Positive&lt;/span&gt;" style="whiteSpace=wrap;html=1;rounded=1;shadow=1;labelBackgroundColor=none;strokeWidth=1;fontFamily=Verdana;fontSize=12;align=center;" parent="1" vertex="1">
          <mxGeometry x="200" y="140" width="120" height="60" as="geometry" />
        </mxCell>
        <mxCell id="62893188c0fa7362-3" value="&lt;span&gt;Gram Negative&amp;nbsp;&lt;/span&gt;" style="whiteSpace=wrap;html=1;rounded=1;shadow=1;labelBackgroundColor=none;strokeWidth=1;fontFamily=Verdana;fontSize=12;align=center;" parent="1" vertex="1">
          <mxGeometry x="770" y="130" width="120" height="60" as="geometry" />
        </mxCell>
        <mxCell id="62893188c0fa7362-14" value="" style="rounded=0;html=1;labelBackgroundColor=none;startArrow=none;startFill=0;startSize=5;endArrow=none;endFill=0;endSize=5;jettySize=auto;orthogonalLoop=1;strokeWidth=1;fontFamily=Verdana;fontSize=12" parent="1" source="62893188c0fa7362-2" edge="1">
          <mxGeometry x="-0.2" y="-14" relative="1" as="geometry">
            <mxPoint as="offset" />
            <mxPoint x="260" y="240" as="targetPoint" />
          </mxGeometry>
        </mxCell>
        <mxCell id="vztQV3_PIfVnxSziOO-2-12" value="&lt;b style=&quot;font-style: normal; font-variant-caps: normal; letter-spacing: normal; text-align: start; text-indent: 0px; text-transform: none; word-spacing: 0px; -webkit-text-stroke-width: 0px; text-decoration: none; caret-color: rgb(0, 0, 0); color: rgb(0, 0, 0); font-weight: normal;&quot; id=&quot;docs-internal-guid-a6507f67-7fff-e8e4-3371-3f45a181fd6f&quot;&gt;&lt;p style=&quot;line-height: 1.38; margin-top: 0pt; margin-bottom: 5pt;&quot; dir=&quot;ltr&quot;&gt;&lt;span style=&quot;font-size: 13.999999999999998pt; font-family: &amp;quot;Times New Roman&amp;quot;, serif; color: rgb(45, 59, 69); background-color: transparent; font-weight: 400; font-style: italic; font-variant-ligatures: normal; font-variant-caps: normal; font-variant-east-asian: normal; font-variant-position: normal; text-decoration: none; vertical-align: baseline;&quot;&gt;Enterococcus faecalis&lt;/span&gt;&lt;/p&gt;&lt;p style=&quot;line-height: 1.38; margin-top: 0pt; margin-bottom: 5pt;&quot; dir=&quot;ltr&quot;&gt;&lt;span style=&quot;font-size: 13.999999999999998pt; font-family: &amp;quot;Times New Roman&amp;quot;, serif; color: rgb(45, 59, 69); background-color: transparent; font-weight: 400; font-style: italic; font-variant-ligatures: normal; font-variant-caps: normal; font-variant-east-asian: normal; font-variant-position: normal; text-decoration: none; vertical-align: baseline;&quot;&gt;Escherichia coli&lt;/span&gt;&lt;/p&gt;&lt;p style=&quot;line-height: 1.38; margin-top: 0pt; margin-bottom: 5pt;&quot; dir=&quot;ltr&quot;&gt;&lt;span style=&quot;font-size: 13.999999999999998pt; font-family: &amp;quot;Times New Roman&amp;quot;, serif; color: rgb(45, 59, 69); background-color: transparent; font-weight: 400; font-style: italic; font-variant-ligatures: normal; font-variant-caps: normal; font-variant-east-asian: normal; font-variant-position: normal; text-decoration: none; vertical-align: baseline;&quot;&gt;Bacillus cereus&lt;/span&gt;&lt;/p&gt;&lt;p style=&quot;line-height: 1.38; margin-top: 0pt; margin-bottom: 5pt;&quot; dir=&quot;ltr&quot;&gt;&lt;span style=&quot;font-size: 13.999999999999998pt; font-family: &amp;quot;Times New Roman&amp;quot;, serif; color: rgb(45, 59, 69); background-color: transparent; font-weight: 400; font-style: italic; font-variant-ligatures: normal; font-variant-caps: normal; font-variant-east-asian: normal; font-variant-position: normal; text-decoration: none; vertical-align: baseline;&quot;&gt;Staphylococcus aureus&amp;nbsp;&lt;/span&gt;&lt;/p&gt;&lt;p style=&quot;line-height: 1.38; margin-top: 0pt; margin-bottom: 5pt;&quot; dir=&quot;ltr&quot;&gt;&lt;span style=&quot;font-size: 13.999999999999998pt; font-family: &amp;quot;Times New Roman&amp;quot;, serif; color: rgb(45, 59, 69); background-color: transparent; font-weight: 400; font-style: italic; font-variant-ligatures: normal; font-variant-caps: normal; font-variant-east-asian: normal; font-variant-position: normal; text-decoration: none; vertical-align: baseline;&quot;&gt;Bacillus subtilis&lt;/span&gt;&lt;/p&gt;&lt;p style=&quot;line-height: 1.38; margin-top: 0pt; margin-bottom: 5pt;&quot; dir=&quot;ltr&quot;&gt;&lt;span style=&quot;font-size: 13.999999999999998pt; font-family: &amp;quot;Times New Roman&amp;quot;, serif; color: rgb(45, 59, 69); background-color: transparent; font-weight: 400; font-style: italic; font-variant-ligatures: normal; font-variant-caps: normal; font-variant-east-asian: normal; font-variant-position: normal; text-decoration: none; vertical-align: baseline;&quot;&gt;Klebsiella aerogenes&lt;/span&gt;&lt;span style=&quot;font-size: 13.999999999999998pt; font-family: &amp;quot;Times New Roman&amp;quot;, serif; color: rgb(45, 59, 69); background-color: transparent; font-weight: 400; font-style: normal; font-variant-ligatures: normal; font-variant-caps: normal; font-variant-east-asian: normal; font-variant-position: normal; text-decoration: none; vertical-align: baseline;&quot;&gt; (previously &lt;/span&gt;&lt;span style=&quot;font-size: 13.999999999999998pt; font-family: &amp;quot;Times New Roman&amp;quot;, serif; color: rgb(45, 59, 69); background-color: transparent; font-weight: 400; font-style: italic; font-variant-ligatures: normal; font-variant-caps: normal; font-variant-east-asian: normal; font-variant-position: normal; text-decoration: none; vertical-align: baseline;&quot;&gt;Enterobacter aerogenes)&lt;/span&gt;&lt;/p&gt;&lt;p style=&quot;line-height: 1.38; margin-top: 0pt; margin-bottom: 5pt;&quot; dir=&quot;ltr&quot;&gt;&lt;span style=&quot;font-size: 13.999999999999998pt; font-family: &amp;quot;Times New Roman&amp;quot;, serif; color: rgb(45, 59, 69); background-color: transparent; font-weight: 400; font-style: italic; font-variant-ligatures: normal; font-variant-caps: normal; font-variant-east-asian: normal; font-variant-position: normal; text-decoration: none; vertical-align: baseline;&quot;&gt;Staphylococcus epidermidis&lt;/span&gt;&lt;/p&gt;&lt;p style=&quot;line-height: 1.38; margin-top: 0pt; margin-bottom: 5pt;&quot; dir=&quot;ltr&quot;&gt;&lt;span style=&quot;font-size: 13.999999999999998pt; font-family: &amp;quot;Times New Roman&amp;quot;, serif; color: rgb(45, 59, 69); background-color: transparent; font-weight: 400; font-style: italic; font-variant-ligatures: normal; font-variant-caps: normal; font-variant-east-asian: normal; font-variant-position: normal; text-decoration: none; vertical-align: baseline;&quot;&gt;Pseudomonas aeruginosa&lt;/span&gt;&lt;/p&gt;&lt;p style=&quot;line-height: 1.38; margin-top: 0pt; margin-bottom: 5pt;&quot; dir=&quot;ltr&quot;&gt;&lt;span style=&quot;font-size: 13.999999999999998pt; font-family: &amp;quot;Times New Roman&amp;quot;, serif; color: rgb(45, 59, 69); background-color: transparent; font-weight: 400; font-style: italic; font-variant-ligatures: normal; font-variant-caps: normal; font-variant-east-asian: normal; font-variant-position: normal; text-decoration: none; vertical-align: baseline;&quot;&gt;Proteus vulgaris&lt;/span&gt;&lt;/p&gt;&lt;/b&gt;" style="rounded=1;whiteSpace=wrap;html=1;" vertex="1" parent="1">
          <mxGeometry x="260" y="-350" width="580" height="360" as="geometry" />
        </mxCell>
        <mxCell id="vztQV3_PIfVnxSziOO-2-17" value="" style="endArrow=none;html=1;rounded=0;exitX=0.917;exitY=0;exitDx=0;exitDy=0;exitPerimeter=0;entryX=0.49;entryY=1.003;entryDx=0;entryDy=0;entryPerimeter=0;" edge="1" parent="1" source="62893188c0fa7362-2" target="vztQV3_PIfVnxSziOO-2-12">
          <mxGeometry width="50" height="50" relative="1" as="geometry">
            <mxPoint x="490" y="60" as="sourcePoint" />
            <mxPoint x="540" y="10" as="targetPoint" />
            <Array as="points" />
          </mxGeometry>
        </mxCell>
        <mxCell id="vztQV3_PIfVnxSziOO-2-18" value="" style="endArrow=none;html=1;rounded=0;exitX=0.25;exitY=0;exitDx=0;exitDy=0;" edge="1" parent="1" source="62893188c0fa7362-3">
          <mxGeometry width="50" height="50" relative="1" as="geometry">
            <mxPoint x="490" y="60" as="sourcePoint" />
            <mxPoint x="540" y="10" as="targetPoint" />
          </mxGeometry>
        </mxCell>
        <mxCell id="vztQV3_PIfVnxSziOO-2-29" value="" style="edgeStyle=orthogonalEdgeStyle;rounded=0;orthogonalLoop=1;jettySize=auto;html=1;" edge="1" parent="1" source="vztQV3_PIfVnxSziOO-2-19" target="62893188c0fa7362-2">
          <mxGeometry relative="1" as="geometry" />
        </mxCell>
        <mxCell id="vztQV3_PIfVnxSziOO-2-19" value="&lt;p style=&quot;line-height: 1.38; margin-top: 0pt; margin-bottom: 5pt;&quot; dir=&quot;ltr&quot;&gt;&lt;/p&gt;&lt;p style=&quot;line-height: 1.38; margin-top: 0pt; margin-bottom: 5pt;&quot; dir=&quot;ltr&quot;&gt;&lt;/p&gt;&lt;p style=&quot;line-height: 1.38; margin-top: 0pt; margin-bottom: 5pt;&quot; dir=&quot;ltr&quot;&gt;&lt;/p&gt;&lt;p style=&quot;line-height: 1.38; margin-top: 0pt; margin-bottom: 5pt;&quot; dir=&quot;ltr&quot;&gt;&lt;/p&gt;&lt;p style=&quot;line-height: 1.38; margin-top: 0pt; margin-bottom: 5pt;&quot; dir=&quot;ltr&quot;&gt;&lt;/p&gt;&lt;p style=&quot;line-height: 1.38; margin-top: 0pt; margin-bottom: 5pt;&quot; dir=&quot;ltr&quot;&gt;&lt;/p&gt;&lt;p style=&quot;line-height: 1.38; margin-top: 0pt; margin-bottom: 5pt;&quot; dir=&quot;ltr&quot;&gt;&lt;/p&gt;&lt;p style=&quot;line-height: 1.38; margin-top: 0pt; margin-bottom: 5pt;&quot; dir=&quot;ltr&quot;&gt;&lt;/p&gt;&lt;p style=&quot;line-height: 1.38; margin-top: 0pt; margin-bottom: 5pt;&quot; dir=&quot;ltr&quot;&gt;&lt;/p&gt;&lt;p&gt;&lt;/p&gt;&lt;div style=&quot;font-size: 15px;&quot;&gt;&lt;div style=&quot;text-align: left;&quot;&gt;&lt;p style=&quot;font-size: 15px; line-height: 1.38; margin-top: 0pt; margin-bottom: 5pt;&quot; dir=&quot;ltr&quot;&gt;&lt;/p&gt;&lt;p style=&quot;font-size: 15px; line-height: 1.38; margin-top: 0pt; margin-bottom: 5pt;&quot; dir=&quot;ltr&quot;&gt;&lt;/p&gt;&lt;p style=&quot;font-size: 15px; line-height: 1.38; margin-top: 0pt; margin-bottom: 5pt;&quot; dir=&quot;ltr&quot;&gt;&lt;/p&gt;&lt;p style=&quot;font-size: 15px; line-height: 1.38; margin-top: 0pt; margin-bottom: 5pt;&quot; dir=&quot;ltr&quot;&gt;&lt;/p&gt;&lt;p style=&quot;font-size: 15px; line-height: 1.38; margin-top: 0pt; margin-bottom: 5pt;&quot; dir=&quot;ltr&quot;&gt;&lt;/p&gt;&lt;p style=&quot;font-size: 15px; line-height: 1.38; margin-top: 0pt; margin-bottom: 5pt;&quot; dir=&quot;ltr&quot;&gt;&lt;/p&gt;&lt;p style=&quot;font-size: 15px; line-height: 1.38; margin-top: 0pt; margin-bottom: 5pt;&quot; dir=&quot;ltr&quot;&gt;&lt;/p&gt;&lt;p style=&quot;font-size: 15px; line-height: 1.38; margin-top: 0pt; margin-bottom: 5pt;&quot; dir=&quot;ltr&quot;&gt;&lt;/p&gt;&lt;p style=&quot;font-size: 15px; line-height: 1.38; margin-top: 0pt; margin-bottom: 5pt;&quot; dir=&quot;ltr&quot;&gt;&lt;/p&gt;&lt;p style=&quot;font-size: 15px; line-height: 1.38; margin-top: 0pt; margin-bottom: 5pt;&quot; dir=&quot;ltr&quot;&gt;&lt;/p&gt;&lt;span style=&quot;font-family: &amp;quot;Times New Roman&amp;quot;, serif; font-style: italic; font-variant-ligatures: normal; font-variant-east-asian: normal; font-variant-position: normal; vertical-align: baseline;&quot;&gt;&lt;font color=&quot;#0f0f0f&quot; style=&quot;font-size: 15px;&quot;&gt;Bacillus subtilis&lt;/font&gt;&lt;/span&gt;&lt;p&gt;&lt;/p&gt;&lt;span style=&quot;font-family: &amp;quot;Times New Roman&amp;quot;, serif; font-style: italic; font-variant-ligatures: normal; font-variant-east-asian: normal; font-variant-position: normal; vertical-align: baseline;&quot;&gt;&lt;font color=&quot;#0f0f0f&quot; style=&quot;font-size: 15px;&quot;&gt;Staphylococcus aureus&amp;nbsp;&lt;/font&gt;&lt;/span&gt;&lt;p&gt;&lt;/p&gt;&lt;span style=&quot;font-family: &amp;quot;Times New Roman&amp;quot;, serif; font-style: italic; font-variant-ligatures: normal; font-variant-east-asian: normal; font-variant-position: normal; vertical-align: baseline;&quot;&gt;&lt;font color=&quot;#0f0f0f&quot; style=&quot;font-size: 15px;&quot;&gt;Bacillus cereus&lt;/font&gt;&lt;/span&gt;&lt;p&gt;&lt;/p&gt;&lt;span style=&quot;font-family: &amp;quot;Times New Roman&amp;quot;, serif; font-style: italic; font-variant-ligatures: normal; font-variant-east-asian: normal; font-variant-position: normal; vertical-align: baseline;&quot;&gt;&lt;font color=&quot;#0f0f0f&quot; style=&quot;font-size: 15px;&quot;&gt;Enterococcus faecalis&lt;/font&gt;&lt;/span&gt;&lt;p&gt;&lt;/p&gt;&lt;font color=&quot;#0f0f0f&quot; style=&quot;font-size: 15px;&quot;&gt;&lt;span id=&quot;docs-internal-guid-7138ad6d-7fff-3c61-c85b-3f268c1272f5&quot;&gt;&lt;/span&gt;&lt;br class=&quot;Apple-interchange-newline&quot;&gt;&lt;/font&gt;&lt;/div&gt;&lt;/div&gt;&lt;font style=&quot;font-size: 15px;&quot;&gt;&lt;span style=&quot;text-align: start;&quot; id=&quot;docs-internal-guid-d27bbf1e-7fff-cc16-3e96-c7b570fea05e&quot;&gt;&lt;/span&gt;&lt;/font&gt;" style="rounded=1;whiteSpace=wrap;html=1;" vertex="1" parent="1">
          <mxGeometry x="140" y="240" width="240" height="150" as="geometry" />
        </mxCell>
        <mxCell id="vztQV3_PIfVnxSziOO-2-20" style="edgeStyle=orthogonalEdgeStyle;rounded=0;orthogonalLoop=1;jettySize=auto;html=1;exitX=0.5;exitY=1;exitDx=0;exitDy=0;" edge="1" parent="1" source="vztQV3_PIfVnxSziOO-2-19" target="vztQV3_PIfVnxSziOO-2-19">
          <mxGeometry relative="1" as="geometry" />
        </mxCell>
        <mxCell id="vztQV3_PIfVnxSziOO-2-21" value="&lt;font style=&quot;font-size: 15px;&quot;&gt;&lt;b style=&quot;font-style: normal; font-variant-caps: normal; letter-spacing: normal; text-align: start; text-indent: 0px; text-transform: none; word-spacing: 0px; -webkit-text-stroke-width: 0px; text-decoration: none; caret-color: rgb(0, 0, 0); font-weight: normal;&quot; id=&quot;docs-internal-guid-ebf9ca55-7fff-fb73-ddd8-5515bfd3f71c&quot;&gt;&lt;font color=&quot;#0f0f0f&quot;&gt;&lt;p style=&quot;line-height: 1.38; margin-top: 0pt; margin-bottom: 5pt;&quot; dir=&quot;ltr&quot;&gt;&lt;span style=&quot;font-family: &amp;quot;Times New Roman&amp;quot;, serif; background-color: transparent; font-weight: 400; font-style: italic; font-variant-ligatures: normal; font-variant-caps: normal; font-variant-east-asian: normal; font-variant-position: normal; text-decoration: none; vertical-align: baseline;&quot;&gt;Escherichia coli&lt;/span&gt;&lt;/p&gt;&lt;p style=&quot;line-height: 1.38; margin-top: 0pt; margin-bottom: 5pt;&quot; dir=&quot;ltr&quot;&gt;&lt;span style=&quot;font-family: &amp;quot;Times New Roman&amp;quot;, serif; background-color: transparent; font-weight: 400; font-style: italic; font-variant-ligatures: normal; font-variant-caps: normal; font-variant-east-asian: normal; font-variant-position: normal; text-decoration: none; vertical-align: baseline;&quot;&gt;Klebsiella aerogenes&lt;/span&gt;&lt;/p&gt;&lt;p style=&quot;line-height: 1.38; margin-top: 0pt; margin-bottom: 5pt;&quot; dir=&quot;ltr&quot;&gt;&lt;span style=&quot;font-family: &amp;quot;Times New Roman&amp;quot;, serif; background-color: transparent; font-weight: 400; font-style: italic; font-variant-ligatures: normal; font-variant-caps: normal; font-variant-east-asian: normal; font-variant-position: normal; text-decoration: none; vertical-align: baseline;&quot;&gt;Pseudomonas aeruginosa&lt;/span&gt;&lt;/p&gt;&lt;p style=&quot;line-height: 1.38; margin-top: 0pt; margin-bottom: 5pt;&quot; dir=&quot;ltr&quot;&gt;&lt;span style=&quot;font-family: &amp;quot;Times New Roman&amp;quot;, serif; background-color: transparent; font-weight: 400; font-style: italic; font-variant-ligatures: normal; font-variant-caps: normal; font-variant-east-asian: normal; font-variant-position: normal; text-decoration: none; vertical-align: baseline;&quot;&gt;Proteus vulgari&lt;/span&gt;&lt;/p&gt;&lt;/font&gt;&lt;/b&gt;&lt;br style=&quot;font-style: normal; font-variant-caps: normal; font-weight: normal; letter-spacing: normal; text-align: start; text-indent: 0px; text-transform: none; word-spacing: 0px; -webkit-text-stroke-width: 0px; text-decoration: none; caret-color: rgb(0, 0, 0); color: rgb(0, 0, 0); font-size: 18.66156666030884px;&quot; class=&quot;Apple-interchange-newline&quot;&gt;&lt;/font&gt;" style="rounded=1;whiteSpace=wrap;html=1;arcSize=16;" vertex="1" parent="1">
          <mxGeometry x="715" y="240" width="230" height="150" as="geometry" />
        </mxCell>
        <mxCell id="vztQV3_PIfVnxSziOO-2-22" value="" style="endArrow=none;html=1;rounded=0;exitX=0.5;exitY=0;exitDx=0;exitDy=0;entryX=0.5;entryY=1;entryDx=0;entryDy=0;" edge="1" parent="1" source="vztQV3_PIfVnxSziOO-2-21" target="62893188c0fa7362-3">
          <mxGeometry width="50" height="50" relative="1" as="geometry">
            <mxPoint x="630" y="160" as="sourcePoint" />
            <mxPoint x="680" y="110" as="targetPoint" />
            <Array as="points">
              <mxPoint x="830" y="220" />
            </Array>
          </mxGeometry>
        </mxCell>
        <mxCell id="vztQV3_PIfVnxSziOO-2-25" value="Cocci" style="rounded=1;whiteSpace=wrap;html=1;" vertex="1" parent="1">
          <mxGeometry x="60" y="470" width="120" height="60" as="geometry" />
        </mxCell>
        <mxCell id="vztQV3_PIfVnxSziOO-2-26" value="" style="endArrow=none;html=1;rounded=0;entryX=0.5;entryY=1;entryDx=0;entryDy=0;exitX=0.5;exitY=0;exitDx=0;exitDy=0;" edge="1" parent="1" source="vztQV3_PIfVnxSziOO-2-25" target="vztQV3_PIfVnxSziOO-2-19">
          <mxGeometry width="50" height="50" relative="1" as="geometry">
            <mxPoint x="260" y="450" as="sourcePoint" />
            <mxPoint x="300" y="480" as="targetPoint" />
          </mxGeometry>
        </mxCell>
        <mxCell id="vztQV3_PIfVnxSziOO-2-27" value="Not &amp;nbsp;Cocci" style="rounded=1;whiteSpace=wrap;html=1;" vertex="1" parent="1">
          <mxGeometry x="340" y="470" width="120" height="60" as="geometry" />
        </mxCell>
        <mxCell id="vztQV3_PIfVnxSziOO-2-28" value="" style="endArrow=none;html=1;rounded=0;entryX=0.5;entryY=1;entryDx=0;entryDy=0;exitX=0.5;exitY=0;exitDx=0;exitDy=0;" edge="1" parent="1" source="vztQV3_PIfVnxSziOO-2-53" target="vztQV3_PIfVnxSziOO-2-49">
          <mxGeometry width="50" height="50" relative="1" as="geometry">
            <mxPoint x="100" y="930" as="sourcePoint" />
            <mxPoint x="20" y="830" as="targetPoint" />
          </mxGeometry>
        </mxCell>
        <mxCell id="vztQV3_PIfVnxSziOO-2-32" value="" style="endArrow=none;html=1;rounded=0;exitX=0.5;exitY=1;exitDx=0;exitDy=0;" edge="1" parent="1" source="vztQV3_PIfVnxSziOO-2-25">
          <mxGeometry width="50" height="50" relative="1" as="geometry">
            <mxPoint x="130" y="540" as="sourcePoint" />
            <mxPoint x="120" y="560" as="targetPoint" />
          </mxGeometry>
        </mxCell>
        <mxCell id="vztQV3_PIfVnxSziOO-2-33" value="" style="endArrow=none;html=1;rounded=0;exitX=0.5;exitY=1;exitDx=0;exitDy=0;" edge="1" parent="1" source="vztQV3_PIfVnxSziOO-2-27">
          <mxGeometry width="50" height="50" relative="1" as="geometry">
            <mxPoint x="250" y="440" as="sourcePoint" />
            <mxPoint x="400" y="560" as="targetPoint" />
          </mxGeometry>
        </mxCell>
        <mxCell id="vztQV3_PIfVnxSziOO-2-34" value="&lt;p style=&quot;line-height: 1.38; margin-top: 0pt; margin-bottom: 5pt;&quot; dir=&quot;ltr&quot;&gt;&lt;/p&gt;&lt;p style=&quot;line-height: 1.38; margin-top: 0pt; margin-bottom: 5pt;&quot; dir=&quot;ltr&quot;&gt;&lt;/p&gt;&lt;p style=&quot;line-height: 1.38; margin-top: 0pt; margin-bottom: 5pt;&quot; dir=&quot;ltr&quot;&gt;&lt;/p&gt;&lt;p style=&quot;line-height: 1.38; margin-top: 0pt; margin-bottom: 5pt;&quot; dir=&quot;ltr&quot;&gt;&lt;/p&gt;&lt;p style=&quot;line-height: 1.38; margin-top: 0pt; margin-bottom: 5pt;&quot; dir=&quot;ltr&quot;&gt;&lt;/p&gt;&lt;p style=&quot;line-height: 1.38; margin-top: 0pt; margin-bottom: 5pt;&quot; dir=&quot;ltr&quot;&gt;&lt;/p&gt;&lt;p style=&quot;line-height: 1.38; margin-top: 0pt; margin-bottom: 5pt;&quot; dir=&quot;ltr&quot;&gt;&lt;/p&gt;&lt;p style=&quot;line-height: 1.38; margin-top: 0pt; margin-bottom: 5pt;&quot; dir=&quot;ltr&quot;&gt;&lt;/p&gt;&lt;p style=&quot;line-height: 1.38; margin-top: 0pt; margin-bottom: 5pt;&quot; dir=&quot;ltr&quot;&gt;&lt;/p&gt;&lt;p&gt;&lt;/p&gt;&lt;div style=&quot;font-size: 15px;&quot;&gt;&lt;div style=&quot;text-align: left;&quot;&gt;&lt;p style=&quot;font-size: 15px; line-height: 1.38; margin-top: 0pt; margin-bottom: 5pt;&quot; dir=&quot;ltr&quot;&gt;&lt;/p&gt;&lt;p style=&quot;font-size: 15px; line-height: 1.38; margin-top: 0pt; margin-bottom: 5pt;&quot; dir=&quot;ltr&quot;&gt;&lt;/p&gt;&lt;p style=&quot;font-size: 15px; line-height: 1.38; margin-top: 0pt; margin-bottom: 5pt;&quot; dir=&quot;ltr&quot;&gt;&lt;/p&gt;&lt;p style=&quot;font-size: 15px; line-height: 1.38; margin-top: 0pt; margin-bottom: 5pt;&quot; dir=&quot;ltr&quot;&gt;&lt;/p&gt;&lt;p style=&quot;font-size: 15px; line-height: 1.38; margin-top: 0pt; margin-bottom: 5pt;&quot; dir=&quot;ltr&quot;&gt;&lt;/p&gt;&lt;p style=&quot;font-size: 15px; line-height: 1.38; margin-top: 0pt; margin-bottom: 5pt;&quot; dir=&quot;ltr&quot;&gt;&lt;/p&gt;&lt;p style=&quot;font-size: 15px; line-height: 1.38; margin-top: 0pt; margin-bottom: 5pt;&quot; dir=&quot;ltr&quot;&gt;&lt;/p&gt;&lt;p style=&quot;font-size: 15px; line-height: 1.38; margin-top: 0pt; margin-bottom: 5pt;&quot; dir=&quot;ltr&quot;&gt;&lt;/p&gt;&lt;p style=&quot;font-size: 15px; line-height: 1.38; margin-top: 0pt; margin-bottom: 5pt;&quot; dir=&quot;ltr&quot;&gt;&lt;/p&gt;&lt;p style=&quot;font-size: 15px; line-height: 1.38; margin-top: 0pt; margin-bottom: 5pt;&quot; dir=&quot;ltr&quot;&gt;&lt;/p&gt;&lt;i&gt;Staphylococcus aureus&lt;/i&gt;&lt;/div&gt;&lt;div style=&quot;text-align: left;&quot;&gt;&lt;i&gt;Enterococcus faecalis&lt;/i&gt;&lt;/div&gt;&lt;/div&gt;" style="rounded=1;whiteSpace=wrap;html=1;" vertex="1" parent="1">
          <mxGeometry y="560" width="240" height="150" as="geometry" />
        </mxCell>
        <mxCell id="vztQV3_PIfVnxSziOO-2-35" value="&lt;p style=&quot;line-height: 1.38; margin-top: 0pt; margin-bottom: 5pt;&quot; dir=&quot;ltr&quot;&gt;&lt;/p&gt;&lt;p style=&quot;line-height: 1.38; margin-top: 0pt; margin-bottom: 5pt;&quot; dir=&quot;ltr&quot;&gt;&lt;/p&gt;&lt;p style=&quot;line-height: 1.38; margin-top: 0pt; margin-bottom: 5pt;&quot; dir=&quot;ltr&quot;&gt;&lt;/p&gt;&lt;p style=&quot;line-height: 1.38; margin-top: 0pt; margin-bottom: 5pt;&quot; dir=&quot;ltr&quot;&gt;&lt;/p&gt;&lt;p style=&quot;line-height: 1.38; margin-top: 0pt; margin-bottom: 5pt;&quot; dir=&quot;ltr&quot;&gt;&lt;/p&gt;&lt;p style=&quot;line-height: 1.38; margin-top: 0pt; margin-bottom: 5pt;&quot; dir=&quot;ltr&quot;&gt;&lt;/p&gt;&lt;p style=&quot;line-height: 1.38; margin-top: 0pt; margin-bottom: 5pt;&quot; dir=&quot;ltr&quot;&gt;&lt;/p&gt;&lt;p style=&quot;line-height: 1.38; margin-top: 0pt; margin-bottom: 5pt;&quot; dir=&quot;ltr&quot;&gt;&lt;/p&gt;&lt;p style=&quot;line-height: 1.38; margin-top: 0pt; margin-bottom: 5pt;&quot; dir=&quot;ltr&quot;&gt;&lt;/p&gt;&lt;p&gt;&lt;/p&gt;&lt;div style=&quot;font-size: 15px;&quot;&gt;&lt;i&gt;&lt;span style=&quot;text-align: start;&quot; id=&quot;docs-internal-guid-235c9550-7fff-6ed0-1810-5bcf73deaa49&quot;&gt;&lt;/span&gt;&lt;/i&gt;&lt;div style=&quot;text-align: left;&quot;&gt;&lt;p style=&quot;font-size: 15px; line-height: 1.38; margin-top: 0pt; margin-bottom: 5pt;&quot; dir=&quot;ltr&quot;&gt;&lt;/p&gt;&lt;p style=&quot;font-size: 15px; line-height: 1.38; margin-top: 0pt; margin-bottom: 5pt;&quot; dir=&quot;ltr&quot;&gt;&lt;/p&gt;&lt;p style=&quot;font-size: 15px; line-height: 1.38; margin-top: 0pt; margin-bottom: 5pt;&quot; dir=&quot;ltr&quot;&gt;&lt;/p&gt;&lt;p style=&quot;font-size: 15px; line-height: 1.38; margin-top: 0pt; margin-bottom: 5pt;&quot; dir=&quot;ltr&quot;&gt;&lt;/p&gt;&lt;p style=&quot;font-size: 15px; line-height: 1.38; margin-top: 0pt; margin-bottom: 5pt;&quot; dir=&quot;ltr&quot;&gt;&lt;/p&gt;&lt;p style=&quot;font-size: 15px; line-height: 1.38; margin-top: 0pt; margin-bottom: 5pt;&quot; dir=&quot;ltr&quot;&gt;&lt;/p&gt;&lt;p style=&quot;font-size: 15px; line-height: 1.38; margin-top: 0pt; margin-bottom: 5pt;&quot; dir=&quot;ltr&quot;&gt;&lt;/p&gt;&lt;p style=&quot;font-size: 15px; line-height: 1.38; margin-top: 0pt; margin-bottom: 5pt;&quot; dir=&quot;ltr&quot;&gt;&lt;/p&gt;&lt;p style=&quot;font-size: 15px; line-height: 1.38; margin-top: 0pt; margin-bottom: 5pt;&quot; dir=&quot;ltr&quot;&gt;&lt;/p&gt;&lt;p style=&quot;font-size: 15px; line-height: 1.38; margin-top: 0pt; margin-bottom: 5pt;&quot; dir=&quot;ltr&quot;&gt;&lt;/p&gt;&lt;i&gt;Bacillus subtilis&lt;/i&gt;&lt;/div&gt;&lt;div style=&quot;text-align: left;&quot;&gt;&lt;i&gt;Bacillus cereus&lt;/i&gt;&lt;/div&gt;&lt;div style=&quot;text-align: left;&quot;&gt;&lt;i&gt;&lt;br&gt;&lt;/i&gt;&lt;/div&gt;&lt;/div&gt;" style="rounded=1;whiteSpace=wrap;html=1;" vertex="1" parent="1">
          <mxGeometry x="280" y="560" width="240" height="150" as="geometry" />
        </mxCell>
        <mxCell id="vztQV3_PIfVnxSziOO-2-36" value="" style="endArrow=none;html=1;rounded=0;entryX=0.5;entryY=1;entryDx=0;entryDy=0;exitX=0.5;exitY=0;exitDx=0;exitDy=0;" edge="1" parent="1">
          <mxGeometry width="50" height="50" relative="1" as="geometry">
            <mxPoint x="980" y="470" as="sourcePoint" />
            <mxPoint x="840" y="390" as="targetPoint" />
          </mxGeometry>
        </mxCell>
        <mxCell id="vztQV3_PIfVnxSziOO-2-37" value="" style="endArrow=none;html=1;rounded=0;entryX=0.5;entryY=1;entryDx=0;entryDy=0;exitX=0.5;exitY=0;exitDx=0;exitDy=0;" edge="1" parent="1">
          <mxGeometry width="50" height="50" relative="1" as="geometry">
            <mxPoint x="700" y="470" as="sourcePoint" />
            <mxPoint x="840" y="390" as="targetPoint" />
          </mxGeometry>
        </mxCell>
        <mxCell id="vztQV3_PIfVnxSziOO-2-38" value="Not &amp;nbsp;Cocci" style="rounded=1;whiteSpace=wrap;html=1;" vertex="1" parent="1">
          <mxGeometry x="920" y="470" width="120" height="60" as="geometry" />
        </mxCell>
        <mxCell id="vztQV3_PIfVnxSziOO-2-39" value="Cocci" style="rounded=1;whiteSpace=wrap;html=1;" vertex="1" parent="1">
          <mxGeometry x="630" y="470" width="120" height="60" as="geometry" />
        </mxCell>
        <mxCell id="vztQV3_PIfVnxSziOO-2-41" value="" style="endArrow=none;html=1;rounded=0;exitX=0.5;exitY=1;exitDx=0;exitDy=0;" edge="1" parent="1" source="vztQV3_PIfVnxSziOO-2-39">
          <mxGeometry width="50" height="50" relative="1" as="geometry">
            <mxPoint x="410" y="540" as="sourcePoint" />
            <mxPoint x="690" y="560" as="targetPoint" />
          </mxGeometry>
        </mxCell>
        <mxCell id="vztQV3_PIfVnxSziOO-2-42" value="" style="endArrow=none;html=1;rounded=0;exitX=0.5;exitY=1;exitDx=0;exitDy=0;" edge="1" parent="1" source="vztQV3_PIfVnxSziOO-2-38">
          <mxGeometry width="50" height="50" relative="1" as="geometry">
            <mxPoint x="700" y="540" as="sourcePoint" />
            <mxPoint x="980" y="560" as="targetPoint" />
          </mxGeometry>
        </mxCell>
        <mxCell id="vztQV3_PIfVnxSziOO-2-43" value="&lt;p style=&quot;line-height: 1.38; margin-top: 0pt; margin-bottom: 5pt;&quot; dir=&quot;ltr&quot;&gt;&lt;/p&gt;&lt;p style=&quot;line-height: 1.38; margin-top: 0pt; margin-bottom: 5pt;&quot; dir=&quot;ltr&quot;&gt;&lt;/p&gt;&lt;p style=&quot;line-height: 1.38; margin-top: 0pt; margin-bottom: 5pt;&quot; dir=&quot;ltr&quot;&gt;&lt;/p&gt;&lt;p style=&quot;line-height: 1.38; margin-top: 0pt; margin-bottom: 5pt;&quot; dir=&quot;ltr&quot;&gt;&lt;/p&gt;&lt;p style=&quot;line-height: 1.38; margin-top: 0pt; margin-bottom: 5pt;&quot; dir=&quot;ltr&quot;&gt;&lt;/p&gt;&lt;p style=&quot;line-height: 1.38; margin-top: 0pt; margin-bottom: 5pt;&quot; dir=&quot;ltr&quot;&gt;&lt;/p&gt;&lt;p style=&quot;line-height: 1.38; margin-top: 0pt; margin-bottom: 5pt;&quot; dir=&quot;ltr&quot;&gt;&lt;/p&gt;&lt;p style=&quot;line-height: 1.38; margin-top: 0pt; margin-bottom: 5pt;&quot; dir=&quot;ltr&quot;&gt;&lt;/p&gt;&lt;p style=&quot;line-height: 1.38; margin-top: 0pt; margin-bottom: 5pt;&quot; dir=&quot;ltr&quot;&gt;&lt;/p&gt;&lt;p&gt;&lt;/p&gt;&lt;div&gt;&lt;span style=&quot;font-size: 15px;&quot;&gt;&lt;i&gt;&lt;span style=&quot;text-align: start;&quot; id=&quot;docs-internal-guid-235c9550-7fff-6ed0-1810-5bcf73deaa49&quot;&gt;&lt;/span&gt;&lt;/i&gt;&lt;/span&gt;&lt;div style=&quot;font-size: 15px; text-align: left;&quot;&gt;&lt;p style=&quot;font-size: 15px; line-height: 1.38; margin-top: 0pt; margin-bottom: 5pt;&quot; dir=&quot;ltr&quot;&gt;&lt;/p&gt;&lt;p style=&quot;font-size: 15px; line-height: 1.38; margin-top: 0pt; margin-bottom: 5pt;&quot; dir=&quot;ltr&quot;&gt;&lt;/p&gt;&lt;p style=&quot;font-size: 15px; line-height: 1.38; margin-top: 0pt; margin-bottom: 5pt;&quot; dir=&quot;ltr&quot;&gt;&lt;/p&gt;&lt;p style=&quot;font-size: 15px; line-height: 1.38; margin-top: 0pt; margin-bottom: 5pt;&quot; dir=&quot;ltr&quot;&gt;&lt;/p&gt;&lt;p style=&quot;font-size: 15px; line-height: 1.38; margin-top: 0pt; margin-bottom: 5pt;&quot; dir=&quot;ltr&quot;&gt;&lt;/p&gt;&lt;p style=&quot;font-size: 15px; line-height: 1.38; margin-top: 0pt; margin-bottom: 5pt;&quot; dir=&quot;ltr&quot;&gt;&lt;/p&gt;&lt;p style=&quot;font-size: 15px; line-height: 1.38; margin-top: 0pt; margin-bottom: 5pt;&quot; dir=&quot;ltr&quot;&gt;&lt;/p&gt;&lt;p style=&quot;font-size: 15px; line-height: 1.38; margin-top: 0pt; margin-bottom: 5pt;&quot; dir=&quot;ltr&quot;&gt;&lt;/p&gt;&lt;p style=&quot;font-size: 15px; line-height: 1.38; margin-top: 0pt; margin-bottom: 5pt;&quot; dir=&quot;ltr&quot;&gt;&lt;/p&gt;&lt;p style=&quot;font-size: 15px; line-height: 1.38; margin-top: 0pt; margin-bottom: 5pt;&quot; dir=&quot;ltr&quot;&gt;&lt;/p&gt;&lt;/div&gt;&lt;div style=&quot;font-size: 15px;&quot;&gt;&lt;i&gt;Escherichia coli&lt;/i&gt;&lt;/div&gt;&lt;div style=&quot;font-size: 15px;&quot;&gt;&lt;i&gt;Klebsiella aerogenes&lt;/i&gt;&lt;/div&gt;&lt;div style=&quot;&quot;&gt;&lt;i&gt;&lt;span style=&quot;font-size: 15px;&quot;&gt;Pseudomonas aueruginosa&lt;/span&gt;&lt;br&gt;&lt;/i&gt;&lt;/div&gt;&lt;/div&gt;&lt;div style=&quot;&quot;&gt;&lt;span style=&quot;font-size: 15px;&quot;&gt;&lt;i&gt;Proteus Vulgari&lt;/i&gt;&lt;/span&gt;&lt;/div&gt;" style="rounded=1;whiteSpace=wrap;html=1;" vertex="1" parent="1">
          <mxGeometry x="860" y="560" width="240" height="150" as="geometry" />
        </mxCell>
        <mxCell id="vztQV3_PIfVnxSziOO-2-44" value="&lt;p style=&quot;line-height: 1.38; margin-top: 0pt; margin-bottom: 5pt;&quot; dir=&quot;ltr&quot;&gt;&lt;/p&gt;&lt;p style=&quot;line-height: 1.38; margin-top: 0pt; margin-bottom: 5pt;&quot; dir=&quot;ltr&quot;&gt;&lt;/p&gt;&lt;p style=&quot;line-height: 1.38; margin-top: 0pt; margin-bottom: 5pt;&quot; dir=&quot;ltr&quot;&gt;&lt;/p&gt;&lt;p style=&quot;line-height: 1.38; margin-top: 0pt; margin-bottom: 5pt;&quot; dir=&quot;ltr&quot;&gt;&lt;/p&gt;&lt;p style=&quot;line-height: 1.38; margin-top: 0pt; margin-bottom: 5pt;&quot; dir=&quot;ltr&quot;&gt;&lt;/p&gt;&lt;p style=&quot;line-height: 1.38; margin-top: 0pt; margin-bottom: 5pt;&quot; dir=&quot;ltr&quot;&gt;&lt;/p&gt;&lt;p style=&quot;line-height: 1.38; margin-top: 0pt; margin-bottom: 5pt;&quot; dir=&quot;ltr&quot;&gt;&lt;/p&gt;&lt;p style=&quot;line-height: 1.38; margin-top: 0pt; margin-bottom: 5pt;&quot; dir=&quot;ltr&quot;&gt;&lt;/p&gt;&lt;p style=&quot;line-height: 1.38; margin-top: 0pt; margin-bottom: 5pt;&quot; dir=&quot;ltr&quot;&gt;&lt;/p&gt;&lt;p&gt;&lt;/p&gt;&lt;div style=&quot;font-size: 15px;&quot;&gt;&lt;i&gt;&lt;span style=&quot;text-align: start;&quot; id=&quot;docs-internal-guid-235c9550-7fff-6ed0-1810-5bcf73deaa49&quot;&gt;&lt;/span&gt;&lt;/i&gt;&lt;div style=&quot;text-align: left;&quot;&gt;&lt;p style=&quot;font-size: 15px; line-height: 1.38; margin-top: 0pt; margin-bottom: 5pt;&quot; dir=&quot;ltr&quot;&gt;&lt;/p&gt;&lt;p style=&quot;font-size: 15px; line-height: 1.38; margin-top: 0pt; margin-bottom: 5pt;&quot; dir=&quot;ltr&quot;&gt;&lt;/p&gt;&lt;p style=&quot;font-size: 15px; line-height: 1.38; margin-top: 0pt; margin-bottom: 5pt;&quot; dir=&quot;ltr&quot;&gt;&lt;/p&gt;&lt;p style=&quot;font-size: 15px; line-height: 1.38; margin-top: 0pt; margin-bottom: 5pt;&quot; dir=&quot;ltr&quot;&gt;&lt;/p&gt;&lt;p style=&quot;font-size: 15px; line-height: 1.38; margin-top: 0pt; margin-bottom: 5pt;&quot; dir=&quot;ltr&quot;&gt;&lt;/p&gt;&lt;p style=&quot;font-size: 15px; line-height: 1.38; margin-top: 0pt; margin-bottom: 5pt;&quot; dir=&quot;ltr&quot;&gt;&lt;/p&gt;&lt;p style=&quot;font-size: 15px; line-height: 1.38; margin-top: 0pt; margin-bottom: 5pt;&quot; dir=&quot;ltr&quot;&gt;&lt;/p&gt;&lt;p style=&quot;font-size: 15px; line-height: 1.38; margin-top: 0pt; margin-bottom: 5pt;&quot; dir=&quot;ltr&quot;&gt;&lt;/p&gt;&lt;p style=&quot;font-size: 15px; line-height: 1.38; margin-top: 0pt; margin-bottom: 5pt;&quot; dir=&quot;ltr&quot;&gt;&lt;/p&gt;&lt;p style=&quot;font-size: 15px; line-height: 1.38; margin-top: 0pt; margin-bottom: 5pt;&quot; dir=&quot;ltr&quot;&gt;&lt;/p&gt;&lt;/div&gt;&lt;div style=&quot;text-align: left;&quot;&gt;&lt;i&gt;&lt;br&gt;&lt;/i&gt;&lt;/div&gt;&lt;/div&gt;" style="rounded=1;whiteSpace=wrap;html=1;" vertex="1" parent="1">
          <mxGeometry x="570" y="560" width="240" height="150" as="geometry" />
        </mxCell>
        <mxCell id="vztQV3_PIfVnxSziOO-2-45" value="" style="endArrow=none;html=1;rounded=0;exitX=0.5;exitY=0;exitDx=0;exitDy=0;" edge="1" parent="1" source="vztQV3_PIfVnxSziOO-2-68">
          <mxGeometry width="50" height="50" relative="1" as="geometry">
            <mxPoint x="410" y="760" as="sourcePoint" />
            <mxPoint x="410" y="710" as="targetPoint" />
          </mxGeometry>
        </mxCell>
        <mxCell id="vztQV3_PIfVnxSziOO-2-47" value="" style="endArrow=none;html=1;rounded=0;entryX=0.5;entryY=1;entryDx=0;entryDy=0;exitX=0.5;exitY=0;exitDx=0;exitDy=0;" edge="1" parent="1" source="vztQV3_PIfVnxSziOO-2-49" target="vztQV3_PIfVnxSziOO-2-34">
          <mxGeometry width="50" height="50" relative="1" as="geometry">
            <mxPoint x="30" y="770" as="sourcePoint" />
            <mxPoint x="420" y="720" as="targetPoint" />
          </mxGeometry>
        </mxCell>
        <mxCell id="vztQV3_PIfVnxSziOO-2-48" value="" style="endArrow=none;html=1;rounded=0;entryX=0.5;entryY=1;entryDx=0;entryDy=0;exitX=0.5;exitY=0;exitDx=0;exitDy=0;" edge="1" parent="1" source="vztQV3_PIfVnxSziOO-2-54" target="vztQV3_PIfVnxSziOO-2-43">
          <mxGeometry width="50" height="50" relative="1" as="geometry">
            <mxPoint x="980" y="800" as="sourcePoint" />
            <mxPoint x="995" y="750" as="targetPoint" />
          </mxGeometry>
        </mxCell>
        <mxCell id="vztQV3_PIfVnxSziOO-2-49" value="Catalase Test" style="rounded=1;whiteSpace=wrap;html=1;" vertex="1" parent="1">
          <mxGeometry x="-200" y="780" width="120" height="60" as="geometry" />
        </mxCell>
        <mxCell id="vztQV3_PIfVnxSziOO-2-50" value="" style="endArrow=none;html=1;rounded=0;entryX=0.5;entryY=1;entryDx=0;entryDy=0;exitX=0.5;exitY=0;exitDx=0;exitDy=0;" edge="1" parent="1" source="vztQV3_PIfVnxSziOO-2-52" target="vztQV3_PIfVnxSziOO-2-49">
          <mxGeometry width="50" height="50" relative="1" as="geometry">
            <mxPoint x="-60" y="930" as="sourcePoint" />
            <mxPoint x="20" y="830" as="targetPoint" />
          </mxGeometry>
        </mxCell>
        <mxCell id="vztQV3_PIfVnxSziOO-2-51" value="" style="endArrow=none;html=1;rounded=0;entryX=0.5;entryY=1;entryDx=0;entryDy=0;exitX=0.5;exitY=0;exitDx=0;exitDy=0;" edge="1" parent="1">
          <mxGeometry width="50" height="50" relative="1" as="geometry">
            <mxPoint x="410" y="470" as="sourcePoint" />
            <mxPoint x="270" y="390" as="targetPoint" />
          </mxGeometry>
        </mxCell>
        <mxCell id="vztQV3_PIfVnxSziOO-2-52" value="Positive&amp;nbsp;" style="rounded=1;whiteSpace=wrap;html=1;" vertex="1" parent="1">
          <mxGeometry x="-380" y="940" width="120" height="60" as="geometry" />
        </mxCell>
        <mxCell id="vztQV3_PIfVnxSziOO-2-53" value="Negative" style="rounded=1;whiteSpace=wrap;html=1;" vertex="1" parent="1">
          <mxGeometry x="-40" y="940" width="120" height="60" as="geometry" />
        </mxCell>
        <mxCell id="vztQV3_PIfVnxSziOO-2-54" value="Oxidase Test" style="rounded=1;whiteSpace=wrap;html=1;" vertex="1" parent="1">
          <mxGeometry x="1200" y="800" width="120" height="60" as="geometry" />
        </mxCell>
        <mxCell id="vztQV3_PIfVnxSziOO-2-55" value="" style="endArrow=none;html=1;rounded=0;entryX=0.5;entryY=1;entryDx=0;entryDy=0;exitX=0.5;exitY=0;exitDx=0;exitDy=0;" edge="1" parent="1" source="vztQV3_PIfVnxSziOO-2-57" target="vztQV3_PIfVnxSziOO-2-54">
          <mxGeometry width="50" height="50" relative="1" as="geometry">
            <mxPoint x="1120" y="940" as="sourcePoint" />
            <mxPoint x="980" y="860" as="targetPoint" />
          </mxGeometry>
        </mxCell>
        <mxCell id="vztQV3_PIfVnxSziOO-2-56" value="" style="endArrow=none;html=1;rounded=0;entryX=0.5;entryY=1;entryDx=0;entryDy=0;exitX=0.5;exitY=0;exitDx=0;exitDy=0;" edge="1" parent="1" source="vztQV3_PIfVnxSziOO-2-58" target="vztQV3_PIfVnxSziOO-2-54">
          <mxGeometry width="50" height="50" relative="1" as="geometry">
            <mxPoint x="840" y="940" as="sourcePoint" />
            <mxPoint x="980" y="860" as="targetPoint" />
          </mxGeometry>
        </mxCell>
        <mxCell id="vztQV3_PIfVnxSziOO-2-57" value="Negative" style="rounded=1;whiteSpace=wrap;html=1;" vertex="1" parent="1">
          <mxGeometry x="1360" y="970" width="120" height="60" as="geometry" />
        </mxCell>
        <mxCell id="vztQV3_PIfVnxSziOO-2-58" value="Positive&amp;nbsp;" style="rounded=1;whiteSpace=wrap;html=1;" vertex="1" parent="1">
          <mxGeometry x="1030" y="970" width="120" height="60" as="geometry" />
        </mxCell>
        <mxCell id="vztQV3_PIfVnxSziOO-2-62" value="" style="endArrow=none;html=1;rounded=0;entryX=0.5;entryY=1;entryDx=0;entryDy=0;exitX=0.5;exitY=0;exitDx=0;exitDy=0;" edge="1" parent="1" source="vztQV3_PIfVnxSziOO-2-66" target="vztQV3_PIfVnxSziOO-2-57">
          <mxGeometry width="50" height="50" relative="1" as="geometry">
            <mxPoint x="1139" y="1080" as="sourcePoint" />
            <mxPoint x="1139.41" y="1040" as="targetPoint" />
          </mxGeometry>
        </mxCell>
        <mxCell id="vztQV3_PIfVnxSziOO-2-63" value="" style="endArrow=none;html=1;rounded=0;entryX=0.5;entryY=1;entryDx=0;entryDy=0;exitX=0.5;exitY=0;exitDx=0;exitDy=0;" edge="1" parent="1" source="vztQV3_PIfVnxSziOO-2-67" target="vztQV3_PIfVnxSziOO-2-58">
          <mxGeometry width="50" height="50" relative="1" as="geometry">
            <mxPoint x="829" y="1080" as="sourcePoint" />
            <mxPoint x="829" y="1040" as="targetPoint" />
          </mxGeometry>
        </mxCell>
        <mxCell id="vztQV3_PIfVnxSziOO-2-66" value="&lt;p style=&quot;line-height: 1.38; margin-top: 0pt; margin-bottom: 5pt;&quot; dir=&quot;ltr&quot;&gt;&lt;/p&gt;&lt;p style=&quot;line-height: 1.38; margin-top: 0pt; margin-bottom: 5pt;&quot; dir=&quot;ltr&quot;&gt;&lt;/p&gt;&lt;p style=&quot;line-height: 1.38; margin-top: 0pt; margin-bottom: 5pt;&quot; dir=&quot;ltr&quot;&gt;&lt;/p&gt;&lt;p style=&quot;line-height: 1.38; margin-top: 0pt; margin-bottom: 5pt;&quot; dir=&quot;ltr&quot;&gt;&lt;/p&gt;&lt;p style=&quot;line-height: 1.38; margin-top: 0pt; margin-bottom: 5pt;&quot; dir=&quot;ltr&quot;&gt;&lt;/p&gt;&lt;p style=&quot;line-height: 1.38; margin-top: 0pt; margin-bottom: 5pt;&quot; dir=&quot;ltr&quot;&gt;&lt;/p&gt;&lt;p style=&quot;line-height: 1.38; margin-top: 0pt; margin-bottom: 5pt;&quot; dir=&quot;ltr&quot;&gt;&lt;/p&gt;&lt;p style=&quot;line-height: 1.38; margin-top: 0pt; margin-bottom: 5pt;&quot; dir=&quot;ltr&quot;&gt;&lt;/p&gt;&lt;p style=&quot;line-height: 1.38; margin-top: 0pt; margin-bottom: 5pt;&quot; dir=&quot;ltr&quot;&gt;&lt;/p&gt;&lt;p&gt;&lt;/p&gt;&lt;div style=&quot;font-size: 15px;&quot;&gt;&lt;i&gt;&lt;span style=&quot;text-align: start;&quot; id=&quot;docs-internal-guid-235c9550-7fff-6ed0-1810-5bcf73deaa49&quot;&gt;&lt;/span&gt;&lt;/i&gt;&lt;div style=&quot;text-align: left;&quot;&gt;&lt;p style=&quot;font-size: 15px; line-height: 1.38; margin-top: 0pt; margin-bottom: 5pt;&quot; dir=&quot;ltr&quot;&gt;&lt;/p&gt;&lt;p style=&quot;font-size: 15px; line-height: 1.38; margin-top: 0pt; margin-bottom: 5pt;&quot; dir=&quot;ltr&quot;&gt;&lt;/p&gt;&lt;p style=&quot;font-size: 15px; line-height: 1.38; margin-top: 0pt; margin-bottom: 5pt;&quot; dir=&quot;ltr&quot;&gt;&lt;/p&gt;&lt;p style=&quot;font-size: 15px; line-height: 1.38; margin-top: 0pt; margin-bottom: 5pt;&quot; dir=&quot;ltr&quot;&gt;&lt;/p&gt;&lt;p style=&quot;font-size: 15px; line-height: 1.38; margin-top: 0pt; margin-bottom: 5pt;&quot; dir=&quot;ltr&quot;&gt;&lt;/p&gt;&lt;p style=&quot;font-size: 15px; line-height: 1.38; margin-top: 0pt; margin-bottom: 5pt;&quot; dir=&quot;ltr&quot;&gt;&lt;/p&gt;&lt;p style=&quot;font-size: 15px; line-height: 1.38; margin-top: 0pt; margin-bottom: 5pt;&quot; dir=&quot;ltr&quot;&gt;&lt;/p&gt;&lt;p style=&quot;font-size: 15px; line-height: 1.38; margin-top: 0pt; margin-bottom: 5pt;&quot; dir=&quot;ltr&quot;&gt;&lt;/p&gt;&lt;p style=&quot;font-size: 15px; line-height: 1.38; margin-top: 0pt; margin-bottom: 5pt;&quot; dir=&quot;ltr&quot;&gt;&lt;/p&gt;&lt;p style=&quot;font-size: 15px; line-height: 1.38; margin-top: 0pt; margin-bottom: 5pt;&quot; dir=&quot;ltr&quot;&gt;&lt;/p&gt;&lt;/div&gt;&lt;div style=&quot;text-align: left;&quot;&gt;&lt;div style=&quot;border-color: var(--border-color); text-align: center;&quot;&gt;&lt;i style=&quot;border-color: var(--border-color);&quot;&gt;Escherichia coli&lt;/i&gt;&lt;/div&gt;&lt;div style=&quot;border-color: var(--border-color); text-align: center;&quot;&gt;&lt;i style=&quot;border-color: var(--border-color);&quot;&gt;&lt;div style=&quot;border-color: var(--border-color); font-style: normal;&quot;&gt;&lt;i style=&quot;border-color: var(--border-color);&quot;&gt;Klebsiella aerogenes&lt;/i&gt;&lt;/div&gt;&lt;div&gt;&lt;i style=&quot;border-color: var(--border-color);&quot;&gt;Proteus Vulgari&lt;/i&gt;&lt;br&gt;&lt;/div&gt;&lt;/i&gt;&lt;/div&gt;&lt;/div&gt;&lt;/div&gt;" style="rounded=1;whiteSpace=wrap;html=1;" vertex="1" parent="1">
          <mxGeometry x="1300" y="1070" width="240" height="150" as="geometry" />
        </mxCell>
        <mxCell id="vztQV3_PIfVnxSziOO-2-67" value="&lt;p style=&quot;line-height: 1.38; margin-top: 0pt; margin-bottom: 5pt;&quot; dir=&quot;ltr&quot;&gt;&lt;/p&gt;&lt;p style=&quot;line-height: 1.38; margin-top: 0pt; margin-bottom: 5pt;&quot; dir=&quot;ltr&quot;&gt;&lt;/p&gt;&lt;p style=&quot;line-height: 1.38; margin-top: 0pt; margin-bottom: 5pt;&quot; dir=&quot;ltr&quot;&gt;&lt;/p&gt;&lt;p style=&quot;line-height: 1.38; margin-top: 0pt; margin-bottom: 5pt;&quot; dir=&quot;ltr&quot;&gt;&lt;/p&gt;&lt;p style=&quot;line-height: 1.38; margin-top: 0pt; margin-bottom: 5pt;&quot; dir=&quot;ltr&quot;&gt;&lt;/p&gt;&lt;p style=&quot;line-height: 1.38; margin-top: 0pt; margin-bottom: 5pt;&quot; dir=&quot;ltr&quot;&gt;&lt;/p&gt;&lt;p style=&quot;line-height: 1.38; margin-top: 0pt; margin-bottom: 5pt;&quot; dir=&quot;ltr&quot;&gt;&lt;/p&gt;&lt;p style=&quot;line-height: 1.38; margin-top: 0pt; margin-bottom: 5pt;&quot; dir=&quot;ltr&quot;&gt;&lt;/p&gt;&lt;p style=&quot;line-height: 1.38; margin-top: 0pt; margin-bottom: 5pt;&quot; dir=&quot;ltr&quot;&gt;&lt;/p&gt;&lt;p&gt;&lt;/p&gt;&lt;div style=&quot;font-size: 15px;&quot;&gt;&lt;i&gt;&lt;span style=&quot;text-align: start;&quot; id=&quot;docs-internal-guid-235c9550-7fff-6ed0-1810-5bcf73deaa49&quot;&gt;&lt;/span&gt;&lt;/i&gt;&lt;div style=&quot;text-align: left;&quot;&gt;&lt;p style=&quot;font-size: 15px; line-height: 1.38; margin-top: 0pt; margin-bottom: 5pt;&quot; dir=&quot;ltr&quot;&gt;&lt;/p&gt;&lt;p style=&quot;font-size: 15px; line-height: 1.38; margin-top: 0pt; margin-bottom: 5pt;&quot; dir=&quot;ltr&quot;&gt;&lt;/p&gt;&lt;p style=&quot;font-size: 15px; line-height: 1.38; margin-top: 0pt; margin-bottom: 5pt;&quot; dir=&quot;ltr&quot;&gt;&lt;/p&gt;&lt;p style=&quot;font-size: 15px; line-height: 1.38; margin-top: 0pt; margin-bottom: 5pt;&quot; dir=&quot;ltr&quot;&gt;&lt;/p&gt;&lt;p style=&quot;font-size: 15px; line-height: 1.38; margin-top: 0pt; margin-bottom: 5pt;&quot; dir=&quot;ltr&quot;&gt;&lt;/p&gt;&lt;p style=&quot;font-size: 15px; line-height: 1.38; margin-top: 0pt; margin-bottom: 5pt;&quot; dir=&quot;ltr&quot;&gt;&lt;/p&gt;&lt;p style=&quot;font-size: 15px; line-height: 1.38; margin-top: 0pt; margin-bottom: 5pt;&quot; dir=&quot;ltr&quot;&gt;&lt;/p&gt;&lt;p style=&quot;font-size: 15px; line-height: 1.38; margin-top: 0pt; margin-bottom: 5pt;&quot; dir=&quot;ltr&quot;&gt;&lt;/p&gt;&lt;p style=&quot;font-size: 15px; line-height: 1.38; margin-top: 0pt; margin-bottom: 5pt;&quot; dir=&quot;ltr&quot;&gt;&lt;/p&gt;&lt;p style=&quot;font-size: 15px; line-height: 1.38; margin-top: 0pt; margin-bottom: 5pt;&quot; dir=&quot;ltr&quot;&gt;&lt;/p&gt;&lt;/div&gt;&lt;div style=&quot;text-align: left;&quot;&gt;&lt;div style=&quot;border-color: var(--border-color); text-align: center;&quot;&gt;&lt;div style=&quot;border-color: var(--border-color);&quot;&gt;&lt;i style=&quot;border-color: var(--border-color);&quot;&gt;Pseudomonas aueruginosa&lt;br style=&quot;border-color: var(--border-color);&quot;&gt;&lt;/i&gt;&lt;/div&gt;&lt;div&gt;&lt;i style=&quot;border-color: var(--border-color);&quot;&gt;&lt;span style=&quot;border-color: var(--border-color); font-size: 15px;&quot;&gt;&lt;br&gt;&lt;/span&gt;&lt;/i&gt;&lt;/div&gt;&lt;/div&gt;&lt;/div&gt;&lt;/div&gt;" style="rounded=1;whiteSpace=wrap;html=1;" vertex="1" parent="1">
          <mxGeometry x="970" y="1070" width="240" height="150" as="geometry" />
        </mxCell>
        <mxCell id="vztQV3_PIfVnxSziOO-2-68" value="Catalase Test" style="rounded=1;whiteSpace=wrap;html=1;" vertex="1" parent="1">
          <mxGeometry x="470" y="800" width="120" height="60" as="geometry" />
        </mxCell>
        <mxCell id="vztQV3_PIfVnxSziOO-2-71" value="" style="endArrow=none;html=1;rounded=0;exitX=0.5;exitY=0;exitDx=0;exitDy=0;entryX=0.5;entryY=1;entryDx=0;entryDy=0;" edge="1" parent="1" source="vztQV3_PIfVnxSziOO-2-73" target="vztQV3_PIfVnxSziOO-2-68">
          <mxGeometry width="50" height="50" relative="1" as="geometry">
            <mxPoint x="550" y="920" as="sourcePoint" />
            <mxPoint x="460" y="810" as="targetPoint" />
          </mxGeometry>
        </mxCell>
        <mxCell id="vztQV3_PIfVnxSziOO-2-72" value="" style="endArrow=none;html=1;rounded=0;entryX=0.5;entryY=1;entryDx=0;entryDy=0;exitX=0.5;exitY=0;exitDx=0;exitDy=0;" edge="1" parent="1" source="vztQV3_PIfVnxSziOO-2-74" target="vztQV3_PIfVnxSziOO-2-68">
          <mxGeometry width="50" height="50" relative="1" as="geometry">
            <mxPoint x="330" y="1080" as="sourcePoint" />
            <mxPoint x="470" y="820" as="targetPoint" />
          </mxGeometry>
        </mxCell>
        <mxCell id="vztQV3_PIfVnxSziOO-2-73" value="Negative" style="rounded=1;whiteSpace=wrap;html=1;" vertex="1" parent="1">
          <mxGeometry x="610" y="940" width="120" height="60" as="geometry" />
        </mxCell>
        <mxCell id="vztQV3_PIfVnxSziOO-2-74" value="Positive&amp;nbsp;" style="rounded=1;whiteSpace=wrap;html=1;" vertex="1" parent="1">
          <mxGeometry x="340" y="940" width="120" height="60" as="geometry" />
        </mxCell>
        <mxCell id="vztQV3_PIfVnxSziOO-2-76" value="" style="endArrow=none;html=1;rounded=0;entryX=0.5;entryY=1;entryDx=0;entryDy=0;exitX=0.5;exitY=0;exitDx=0;exitDy=0;" edge="1" parent="1" source="vztQV3_PIfVnxSziOO-2-82" target="vztQV3_PIfVnxSziOO-2-52">
          <mxGeometry width="50" height="50" relative="1" as="geometry">
            <mxPoint x="-120" y="1020" as="sourcePoint" />
            <mxPoint x="50" y="1010" as="targetPoint" />
          </mxGeometry>
        </mxCell>
        <mxCell id="vztQV3_PIfVnxSziOO-2-77" value="" style="endArrow=none;html=1;rounded=0;entryX=0.5;entryY=1;entryDx=0;entryDy=0;" edge="1" parent="1" source="vztQV3_PIfVnxSziOO-2-81" target="vztQV3_PIfVnxSziOO-2-53">
          <mxGeometry width="50" height="50" relative="1" as="geometry">
            <mxPoint x="200" y="1010" as="sourcePoint" />
            <mxPoint x="400" y="850" as="targetPoint" />
          </mxGeometry>
        </mxCell>
        <mxCell id="vztQV3_PIfVnxSziOO-2-79" value="" style="endArrow=none;html=1;rounded=0;entryX=0.5;entryY=1;entryDx=0;entryDy=0;exitX=0.5;exitY=0;exitDx=0;exitDy=0;" edge="1" parent="1" source="vztQV3_PIfVnxSziOO-2-84" target="vztQV3_PIfVnxSziOO-2-74">
          <mxGeometry width="50" height="50" relative="1" as="geometry">
            <mxPoint x="330" y="1190" as="sourcePoint" />
            <mxPoint x="400" y="850" as="targetPoint" />
          </mxGeometry>
        </mxCell>
        <mxCell id="vztQV3_PIfVnxSziOO-2-81" value="&lt;p style=&quot;line-height: 1.38; margin-top: 0pt; margin-bottom: 5pt;&quot; dir=&quot;ltr&quot;&gt;&lt;/p&gt;&lt;p style=&quot;line-height: 1.38; margin-top: 0pt; margin-bottom: 5pt;&quot; dir=&quot;ltr&quot;&gt;&lt;/p&gt;&lt;p style=&quot;line-height: 1.38; margin-top: 0pt; margin-bottom: 5pt;&quot; dir=&quot;ltr&quot;&gt;&lt;/p&gt;&lt;p style=&quot;line-height: 1.38; margin-top: 0pt; margin-bottom: 5pt;&quot; dir=&quot;ltr&quot;&gt;&lt;/p&gt;&lt;p style=&quot;line-height: 1.38; margin-top: 0pt; margin-bottom: 5pt;&quot; dir=&quot;ltr&quot;&gt;&lt;/p&gt;&lt;p style=&quot;line-height: 1.38; margin-top: 0pt; margin-bottom: 5pt;&quot; dir=&quot;ltr&quot;&gt;&lt;/p&gt;&lt;p style=&quot;line-height: 1.38; margin-top: 0pt; margin-bottom: 5pt;&quot; dir=&quot;ltr&quot;&gt;&lt;/p&gt;&lt;p style=&quot;line-height: 1.38; margin-top: 0pt; margin-bottom: 5pt;&quot; dir=&quot;ltr&quot;&gt;&lt;/p&gt;&lt;p style=&quot;line-height: 1.38; margin-top: 0pt; margin-bottom: 5pt;&quot; dir=&quot;ltr&quot;&gt;&lt;/p&gt;&lt;p&gt;&lt;/p&gt;&lt;div style=&quot;font-size: 15px;&quot;&gt;&lt;i&gt;&lt;span style=&quot;text-align: start;&quot; id=&quot;docs-internal-guid-235c9550-7fff-6ed0-1810-5bcf73deaa49&quot;&gt;&lt;/span&gt;&lt;/i&gt;&lt;div style=&quot;text-align: left;&quot;&gt;&lt;p style=&quot;font-size: 15px; line-height: 1.38; margin-top: 0pt; margin-bottom: 5pt;&quot; dir=&quot;ltr&quot;&gt;&lt;/p&gt;&lt;p style=&quot;font-size: 15px; line-height: 1.38; margin-top: 0pt; margin-bottom: 5pt;&quot; dir=&quot;ltr&quot;&gt;&lt;/p&gt;&lt;p style=&quot;font-size: 15px; line-height: 1.38; margin-top: 0pt; margin-bottom: 5pt;&quot; dir=&quot;ltr&quot;&gt;&lt;/p&gt;&lt;p style=&quot;font-size: 15px; line-height: 1.38; margin-top: 0pt; margin-bottom: 5pt;&quot; dir=&quot;ltr&quot;&gt;&lt;/p&gt;&lt;p style=&quot;font-size: 15px; line-height: 1.38; margin-top: 0pt; margin-bottom: 5pt;&quot; dir=&quot;ltr&quot;&gt;&lt;/p&gt;&lt;p style=&quot;font-size: 15px; line-height: 1.38; margin-top: 0pt; margin-bottom: 5pt;&quot; dir=&quot;ltr&quot;&gt;&lt;/p&gt;&lt;p style=&quot;font-size: 15px; line-height: 1.38; margin-top: 0pt; margin-bottom: 5pt;&quot; dir=&quot;ltr&quot;&gt;&lt;/p&gt;&lt;p style=&quot;font-size: 15px; line-height: 1.38; margin-top: 0pt; margin-bottom: 5pt;&quot; dir=&quot;ltr&quot;&gt;&lt;/p&gt;&lt;p style=&quot;font-size: 15px; line-height: 1.38; margin-top: 0pt; margin-bottom: 5pt;&quot; dir=&quot;ltr&quot;&gt;&lt;/p&gt;&lt;p style=&quot;font-size: 15px; line-height: 1.38; margin-top: 0pt; margin-bottom: 5pt;&quot; dir=&quot;ltr&quot;&gt;&lt;/p&gt;&lt;/div&gt;&lt;div style=&quot;text-align: left;&quot;&gt;&lt;p style=&quot;line-height: 1.38; margin-top: 0pt; margin-bottom: 5pt;&quot; dir=&quot;ltr&quot;&gt;&lt;/p&gt;&lt;span id=&quot;docs-internal-guid-57f29692-7fff-f56c-f4dc-2882d5e454ca&quot;&gt;&lt;/span&gt;&lt;i style=&quot;border-color: var(--border-color);&quot;&gt;Enterococcus faecalis&lt;/i&gt;&lt;br class=&quot;Apple-interchange-newline&quot;&gt;&lt;/div&gt;&lt;/div&gt;" style="rounded=1;whiteSpace=wrap;html=1;" vertex="1" parent="1">
          <mxGeometry x="-100" y="1055" width="240" height="150" as="geometry" />
        </mxCell>
        <mxCell id="vztQV3_PIfVnxSziOO-2-82" value="&lt;p style=&quot;line-height: 1.38; margin-top: 0pt; margin-bottom: 5pt;&quot; dir=&quot;ltr&quot;&gt;&lt;/p&gt;&lt;p style=&quot;line-height: 1.38; margin-top: 0pt; margin-bottom: 5pt;&quot; dir=&quot;ltr&quot;&gt;&lt;/p&gt;&lt;p style=&quot;line-height: 1.38; margin-top: 0pt; margin-bottom: 5pt;&quot; dir=&quot;ltr&quot;&gt;&lt;/p&gt;&lt;p style=&quot;line-height: 1.38; margin-top: 0pt; margin-bottom: 5pt;&quot; dir=&quot;ltr&quot;&gt;&lt;/p&gt;&lt;p style=&quot;line-height: 1.38; margin-top: 0pt; margin-bottom: 5pt;&quot; dir=&quot;ltr&quot;&gt;&lt;/p&gt;&lt;p style=&quot;line-height: 1.38; margin-top: 0pt; margin-bottom: 5pt;&quot; dir=&quot;ltr&quot;&gt;&lt;/p&gt;&lt;p style=&quot;line-height: 1.38; margin-top: 0pt; margin-bottom: 5pt;&quot; dir=&quot;ltr&quot;&gt;&lt;/p&gt;&lt;p style=&quot;line-height: 1.38; margin-top: 0pt; margin-bottom: 5pt;&quot; dir=&quot;ltr&quot;&gt;&lt;/p&gt;&lt;p style=&quot;line-height: 1.38; margin-top: 0pt; margin-bottom: 5pt;&quot; dir=&quot;ltr&quot;&gt;&lt;/p&gt;&lt;p&gt;&lt;/p&gt;&lt;div style=&quot;font-size: 15px;&quot;&gt;&lt;i&gt;&lt;span style=&quot;text-align: start;&quot; id=&quot;docs-internal-guid-235c9550-7fff-6ed0-1810-5bcf73deaa49&quot;&gt;&lt;/span&gt;&lt;/i&gt;&lt;div style=&quot;text-align: left;&quot;&gt;&lt;p style=&quot;font-size: 15px; line-height: 1.38; margin-top: 0pt; margin-bottom: 5pt;&quot; dir=&quot;ltr&quot;&gt;&lt;/p&gt;&lt;p style=&quot;font-size: 15px; line-height: 1.38; margin-top: 0pt; margin-bottom: 5pt;&quot; dir=&quot;ltr&quot;&gt;&lt;/p&gt;&lt;p style=&quot;font-size: 15px; line-height: 1.38; margin-top: 0pt; margin-bottom: 5pt;&quot; dir=&quot;ltr&quot;&gt;&lt;/p&gt;&lt;p style=&quot;font-size: 15px; line-height: 1.38; margin-top: 0pt; margin-bottom: 5pt;&quot; dir=&quot;ltr&quot;&gt;&lt;/p&gt;&lt;p style=&quot;font-size: 15px; line-height: 1.38; margin-top: 0pt; margin-bottom: 5pt;&quot; dir=&quot;ltr&quot;&gt;&lt;/p&gt;&lt;p style=&quot;font-size: 15px; line-height: 1.38; margin-top: 0pt; margin-bottom: 5pt;&quot; dir=&quot;ltr&quot;&gt;&lt;/p&gt;&lt;p style=&quot;font-size: 15px; line-height: 1.38; margin-top: 0pt; margin-bottom: 5pt;&quot; dir=&quot;ltr&quot;&gt;&lt;/p&gt;&lt;p style=&quot;font-size: 15px; line-height: 1.38; margin-top: 0pt; margin-bottom: 5pt;&quot; dir=&quot;ltr&quot;&gt;&lt;/p&gt;&lt;p style=&quot;font-size: 15px; line-height: 1.38; margin-top: 0pt; margin-bottom: 5pt;&quot; dir=&quot;ltr&quot;&gt;&lt;/p&gt;&lt;p style=&quot;font-size: 15px; line-height: 1.38; margin-top: 0pt; margin-bottom: 5pt;&quot; dir=&quot;ltr&quot;&gt;&lt;/p&gt;&lt;/div&gt;&lt;div style=&quot;text-align: left;&quot;&gt;&lt;div style=&quot;border-color: var(--border-color);&quot;&gt;&lt;i style=&quot;border-color: var(--border-color);&quot;&gt;Staphylococcus aureus&lt;/i&gt;&lt;/div&gt;&lt;div&gt;&lt;i style=&quot;border-color: var(--border-color);&quot;&gt;&lt;br&gt;&lt;/i&gt;&lt;/div&gt;&lt;/div&gt;&lt;/div&gt;" style="rounded=1;whiteSpace=wrap;html=1;" vertex="1" parent="1">
          <mxGeometry x="-440" y="1055" width="240" height="150" as="geometry" />
        </mxCell>
        <mxCell id="vztQV3_PIfVnxSziOO-2-84" value="&lt;p style=&quot;line-height: 1.38; margin-top: 0pt; margin-bottom: 5pt;&quot; dir=&quot;ltr&quot;&gt;&lt;/p&gt;&lt;p style=&quot;line-height: 1.38; margin-top: 0pt; margin-bottom: 5pt;&quot; dir=&quot;ltr&quot;&gt;&lt;/p&gt;&lt;p style=&quot;line-height: 1.38; margin-top: 0pt; margin-bottom: 5pt;&quot; dir=&quot;ltr&quot;&gt;&lt;/p&gt;&lt;p style=&quot;line-height: 1.38; margin-top: 0pt; margin-bottom: 5pt;&quot; dir=&quot;ltr&quot;&gt;&lt;/p&gt;&lt;p style=&quot;line-height: 1.38; margin-top: 0pt; margin-bottom: 5pt;&quot; dir=&quot;ltr&quot;&gt;&lt;/p&gt;&lt;p style=&quot;line-height: 1.38; margin-top: 0pt; margin-bottom: 5pt;&quot; dir=&quot;ltr&quot;&gt;&lt;/p&gt;&lt;p style=&quot;line-height: 1.38; margin-top: 0pt; margin-bottom: 5pt;&quot; dir=&quot;ltr&quot;&gt;&lt;/p&gt;&lt;p style=&quot;line-height: 1.38; margin-top: 0pt; margin-bottom: 5pt;&quot; dir=&quot;ltr&quot;&gt;&lt;/p&gt;&lt;p style=&quot;line-height: 1.38; margin-top: 0pt; margin-bottom: 5pt;&quot; dir=&quot;ltr&quot;&gt;&lt;/p&gt;&lt;p&gt;&lt;/p&gt;&lt;div style=&quot;font-size: 15px;&quot;&gt;&lt;i&gt;&lt;span style=&quot;text-align: start;&quot; id=&quot;docs-internal-guid-235c9550-7fff-6ed0-1810-5bcf73deaa49&quot;&gt;&lt;/span&gt;&lt;/i&gt;&lt;div style=&quot;text-align: left;&quot;&gt;&lt;p style=&quot;font-size: 15px; line-height: 1.38; margin-top: 0pt; margin-bottom: 5pt;&quot; dir=&quot;ltr&quot;&gt;&lt;/p&gt;&lt;p style=&quot;font-size: 15px; line-height: 1.38; margin-top: 0pt; margin-bottom: 5pt;&quot; dir=&quot;ltr&quot;&gt;&lt;/p&gt;&lt;p style=&quot;font-size: 15px; line-height: 1.38; margin-top: 0pt; margin-bottom: 5pt;&quot; dir=&quot;ltr&quot;&gt;&lt;/p&gt;&lt;p style=&quot;font-size: 15px; line-height: 1.38; margin-top: 0pt; margin-bottom: 5pt;&quot; dir=&quot;ltr&quot;&gt;&lt;/p&gt;&lt;p style=&quot;font-size: 15px; line-height: 1.38; margin-top: 0pt; margin-bottom: 5pt;&quot; dir=&quot;ltr&quot;&gt;&lt;/p&gt;&lt;p style=&quot;font-size: 15px; line-height: 1.38; margin-top: 0pt; margin-bottom: 5pt;&quot; dir=&quot;ltr&quot;&gt;&lt;/p&gt;&lt;p style=&quot;font-size: 15px; line-height: 1.38; margin-top: 0pt; margin-bottom: 5pt;&quot; dir=&quot;ltr&quot;&gt;&lt;/p&gt;&lt;p style=&quot;font-size: 15px; line-height: 1.38; margin-top: 0pt; margin-bottom: 5pt;&quot; dir=&quot;ltr&quot;&gt;&lt;/p&gt;&lt;p style=&quot;font-size: 15px; line-height: 1.38; margin-top: 0pt; margin-bottom: 5pt;&quot; dir=&quot;ltr&quot;&gt;&lt;/p&gt;&lt;p style=&quot;font-size: 15px; line-height: 1.38; margin-top: 0pt; margin-bottom: 5pt;&quot; dir=&quot;ltr&quot;&gt;&lt;/p&gt;&lt;/div&gt;&lt;div style=&quot;text-align: left;&quot;&gt;&lt;div style=&quot;border-color: var(--border-color);&quot;&gt;&lt;i style=&quot;border-color: var(--border-color);&quot;&gt;Bacillus subtilis&lt;/i&gt;&lt;/div&gt;&lt;div style=&quot;border-color: var(--border-color);&quot;&gt;&lt;i style=&quot;border-color: var(--border-color);&quot;&gt;&lt;div style=&quot;border-color: var(--border-color); font-style: normal;&quot;&gt;&lt;i style=&quot;border-color: var(--border-color);&quot;&gt;Bacillus cereus&lt;/i&gt;&lt;/div&gt;&lt;/i&gt;&lt;/div&gt;&lt;/div&gt;&lt;/div&gt;" style="rounded=1;whiteSpace=wrap;html=1;" vertex="1" parent="1">
          <mxGeometry x="280" y="1055" width="240" height="150" as="geometry" />
        </mxCell>
        <mxCell id="vztQV3_PIfVnxSziOO-2-85" value="&lt;p style=&quot;line-height: 1.38; margin-top: 0pt; margin-bottom: 5pt;&quot; dir=&quot;ltr&quot;&gt;&lt;/p&gt;&lt;p style=&quot;line-height: 1.38; margin-top: 0pt; margin-bottom: 5pt;&quot; dir=&quot;ltr&quot;&gt;&lt;/p&gt;&lt;p style=&quot;line-height: 1.38; margin-top: 0pt; margin-bottom: 5pt;&quot; dir=&quot;ltr&quot;&gt;&lt;/p&gt;&lt;p style=&quot;line-height: 1.38; margin-top: 0pt; margin-bottom: 5pt;&quot; dir=&quot;ltr&quot;&gt;&lt;/p&gt;&lt;p style=&quot;line-height: 1.38; margin-top: 0pt; margin-bottom: 5pt;&quot; dir=&quot;ltr&quot;&gt;&lt;/p&gt;&lt;p style=&quot;line-height: 1.38; margin-top: 0pt; margin-bottom: 5pt;&quot; dir=&quot;ltr&quot;&gt;&lt;/p&gt;&lt;p style=&quot;line-height: 1.38; margin-top: 0pt; margin-bottom: 5pt;&quot; dir=&quot;ltr&quot;&gt;&lt;/p&gt;&lt;p style=&quot;line-height: 1.38; margin-top: 0pt; margin-bottom: 5pt;&quot; dir=&quot;ltr&quot;&gt;&lt;/p&gt;&lt;p style=&quot;line-height: 1.38; margin-top: 0pt; margin-bottom: 5pt;&quot; dir=&quot;ltr&quot;&gt;&lt;/p&gt;&lt;p&gt;&lt;/p&gt;&lt;div style=&quot;font-size: 15px;&quot;&gt;&lt;i&gt;&lt;span style=&quot;text-align: start;&quot; id=&quot;docs-internal-guid-235c9550-7fff-6ed0-1810-5bcf73deaa49&quot;&gt;&lt;/span&gt;&lt;/i&gt;&lt;div style=&quot;text-align: left;&quot;&gt;&lt;p style=&quot;font-size: 15px; line-height: 1.38; margin-top: 0pt; margin-bottom: 5pt;&quot; dir=&quot;ltr&quot;&gt;&lt;/p&gt;&lt;p style=&quot;font-size: 15px; line-height: 1.38; margin-top: 0pt; margin-bottom: 5pt;&quot; dir=&quot;ltr&quot;&gt;&lt;/p&gt;&lt;p style=&quot;font-size: 15px; line-height: 1.38; margin-top: 0pt; margin-bottom: 5pt;&quot; dir=&quot;ltr&quot;&gt;&lt;/p&gt;&lt;p style=&quot;font-size: 15px; line-height: 1.38; margin-top: 0pt; margin-bottom: 5pt;&quot; dir=&quot;ltr&quot;&gt;&lt;/p&gt;&lt;p style=&quot;font-size: 15px; line-height: 1.38; margin-top: 0pt; margin-bottom: 5pt;&quot; dir=&quot;ltr&quot;&gt;&lt;/p&gt;&lt;p style=&quot;font-size: 15px; line-height: 1.38; margin-top: 0pt; margin-bottom: 5pt;&quot; dir=&quot;ltr&quot;&gt;&lt;/p&gt;&lt;p style=&quot;font-size: 15px; line-height: 1.38; margin-top: 0pt; margin-bottom: 5pt;&quot; dir=&quot;ltr&quot;&gt;&lt;/p&gt;&lt;p style=&quot;font-size: 15px; line-height: 1.38; margin-top: 0pt; margin-bottom: 5pt;&quot; dir=&quot;ltr&quot;&gt;&lt;/p&gt;&lt;p style=&quot;font-size: 15px; line-height: 1.38; margin-top: 0pt; margin-bottom: 5pt;&quot; dir=&quot;ltr&quot;&gt;&lt;/p&gt;&lt;p style=&quot;font-size: 15px; line-height: 1.38; margin-top: 0pt; margin-bottom: 5pt;&quot; dir=&quot;ltr&quot;&gt;&lt;/p&gt;&lt;/div&gt;&lt;div style=&quot;text-align: left;&quot;&gt;&lt;i&gt;&lt;br&gt;&lt;/i&gt;&lt;/div&gt;&lt;/div&gt;" style="rounded=1;whiteSpace=wrap;html=1;" vertex="1" parent="1">
          <mxGeometry x="560" y="1055" width="240" height="150" as="geometry" />
        </mxCell>
        <mxCell id="vztQV3_PIfVnxSziOO-2-86" value="" style="endArrow=none;html=1;rounded=0;entryX=0.5;entryY=1;entryDx=0;entryDy=0;exitX=0.462;exitY=0.011;exitDx=0;exitDy=0;exitPerimeter=0;" edge="1" parent="1" source="vztQV3_PIfVnxSziOO-2-85" target="vztQV3_PIfVnxSziOO-2-73">
          <mxGeometry width="50" height="50" relative="1" as="geometry">
            <mxPoint x="410" y="1065" as="sourcePoint" />
            <mxPoint x="410" y="1010" as="targetPoint" />
          </mxGeometry>
        </mxCell>
      </root>
    </mxGraphModel>
  </diagram>
</mxfile>
